<svg width="33" height="26" viewBox="0 0 33 26" fill="none" xmlns="http://www.w3.org/2000/svg">
<path d="M26.7956 11.2488V6.97405C26.7956 6.7076 26.5755 6.48749 26.3091 6.48749H22.069C21.8026 6.48749 21.5825 6.7076 21.5825 6.97405V9.03614C21.5825 9.45319 21.2465 9.78915 20.8295 9.78915H18.7326C18.4893 9.78915 18.2924 9.59221 18.2924 9.34893V6.93929C18.2924 6.69601 18.4893 6.49907 18.7326 6.49907H20.9685C21.3044 6.49907 21.5825 6.22104 21.5825 5.88508V2.65292C21.5825 2.3633 21.3855 2.12002 21.1075 2.05051L14.956 0.671918C14.5853 0.590824 14.203 0.590824 13.8322 0.671918L0.903613 3.5797C0.370712 3.69555 0 4.17053 0 4.71501V19.1728C0 19.7173 0.370712 20.1807 0.903613 20.3082L13.8322 23.2159C14.203 23.297 14.5853 23.297 14.956 23.2159L27.6529 20.3661C28.3132 20.2155 28.7882 19.6246 28.7882 18.9527V12.1061C28.7882 11.886 28.6145 11.7122 28.3943 11.7122H27.2474C26.9926 11.6891 26.7956 11.4921 26.7956 11.2488ZM26.1353 14.9907H24.1659C23.8068 14.9907 23.5056 14.7011 23.5056 14.3304V12.361C23.5056 12.0018 23.7952 11.7006 24.1659 11.7006H26.1353C26.4944 11.7006 26.7956 11.9903 26.7956 12.361V14.3304C26.7956 14.7011 26.4944 14.9907 26.1353 14.9907ZM23.4476 2.17794H21.8953C21.7215 2.17794 21.5825 2.03892 21.5825 1.86515V0.312789C21.5825 0.139017 21.7215 0 21.8953 0H23.4476C23.6214 0 23.7604 0.139017 23.7604 0.312789V1.87674C23.7488 2.03892 23.6098 2.17794 23.4476 2.17794Z" fill="url(#paint0_linear_27_6)"/>
<path d="M32.3333 2.7689H30.8504C30.6651 2.7689 30.5145 2.61829 30.5145 2.43294V0.938498C30.5145 0.753142 30.6651 0.602539 30.8504 0.602539H32.3333C32.5186 0.602539 32.6692 0.753142 32.6692 0.938498V2.42135C32.6808 2.61829 32.5186 2.7689 32.3333 2.7689ZM30.8157 11.3764V9.87038C30.8157 9.68502 30.6651 9.546 30.4913 9.546H28.9853C28.7999 9.546 28.6609 9.6966 28.6609 9.87038V11.3764C28.6609 11.5618 28.8115 11.7008 28.9853 11.7008H30.4913C30.6651 11.7124 30.8157 11.5618 30.8157 11.3764Z" fill="url(#paint1_linear_27_6)"/>
<path d="M30.0973 6.48776H27.2127C26.981 6.48776 26.7957 6.30241 26.7957 6.07071V3.1861C26.7957 2.9544 26.981 2.76904 27.2127 2.76904H30.0973C30.329 2.76904 30.5144 2.9544 30.5144 3.1861V6.07071C30.5028 6.30241 30.3175 6.48776 30.0973 6.48776ZM23.3087 11.7125H21.7795C21.6636 11.7125 21.5825 11.6198 21.5825 11.5156V9.98637C21.5825 9.87052 21.6752 9.78943 21.7795 9.78943H23.3087C23.4245 9.78943 23.5056 9.88211 23.5056 9.98637V11.5156C23.5056 11.6198 23.4245 11.7125 23.3087 11.7125Z" fill="url(#paint2_linear_27_6)"/>
<path d="M12.2914 2.56022L1.69135 4.69183C1.25113 4.7845 0.926758 5.1668 0.926758 5.63019V9.41842V9.88182V13.9828V14.4462V18.2345C0.926758 18.6863 1.25113 19.0801 1.69135 19.1728L12.2914 21.3044C12.8823 21.4203 13.4268 20.9685 13.4268 20.3661V15.3383V14.7011V9.14039V8.50322V3.47542C13.4268 2.89618 12.8823 2.44437 12.2914 2.56022Z" fill="url(#paint3_linear_27_6)"/>
<path d="M5.85038 6.97396V6.12827C5.85038 5.90816 6.01257 5.73439 6.22109 5.69964L8.78133 5.31734C9.04778 5.28258 9.27948 5.47952 9.27948 5.74597V6.70751C9.27948 6.92762 9.11729 7.11298 8.89718 7.13615L6.33694 7.41419C6.07049 7.42577 5.85038 7.22883 5.85038 6.97396ZM4.37911 7.61113L4.49496 7.59954C4.71507 7.57637 4.87726 7.39102 4.87726 7.1709V6.39472C4.87726 6.12827 4.64556 5.93133 4.37911 5.96609L4.26326 5.98926C4.05474 6.02401 3.89255 6.20937 3.89255 6.41789V7.18249C3.89255 7.43736 4.12424 7.64588 4.37911 7.61113ZM11.4343 6.84653L11.944 6.78861C12.1641 6.76544 12.3263 6.58008 12.3263 6.35997V5.271C12.3263 5.00455 12.0946 4.80761 11.8281 4.84236L11.3184 4.92345C11.1099 4.95821 10.9477 5.14356 10.9477 5.35209V6.41789C10.9477 6.67276 11.1794 6.8697 11.4343 6.84653ZM3.13954 7.75014L3.19746 7.73856C3.41757 7.71539 3.57976 7.53003 3.57976 7.30992V6.59166C3.57976 6.32521 3.34806 6.12827 3.08161 6.16303L3.02369 6.17461C2.81516 6.20937 2.65298 6.39472 2.65298 6.60325V7.32151C2.65298 7.57637 2.87309 7.77331 3.13954 7.75014ZM1.96947 7.87758C2.18958 7.85441 2.35177 7.66905 2.35177 7.44894V6.77702C2.35177 6.51057 2.12008 6.31363 1.85363 6.34838C1.6451 6.38314 1.48291 6.5685 1.48291 6.77702V7.44894C1.48291 7.70381 1.71461 7.90075 1.96947 7.87758ZM6.26743 12.8011L8.82767 12.859C9.07095 12.859 9.2679 12.6737 9.2679 12.4304V11.4689C9.2679 11.2256 9.07095 11.0286 8.82767 11.0402L6.26743 11.0982C6.03574 11.0982 5.83879 11.2951 5.83879 11.5268V12.3841C5.85038 12.6042 6.03574 12.7895 6.26743 12.8011ZM4.32119 12.7548H4.43703C4.68031 12.7548 4.87726 12.5694 4.87726 12.3261V11.55C4.87726 11.3067 4.68031 11.1097 4.43703 11.1213H4.32119C4.08949 11.1213 3.89255 11.3183 3.89255 11.55V12.3261C3.89255 12.5578 4.08949 12.7548 4.32119 12.7548ZM11.3763 12.9054L11.8861 12.917C12.1293 12.917 12.3263 12.7316 12.3263 12.4883V11.3994C12.3263 11.1561 12.1293 10.9591 11.8861 10.9707L11.3763 10.9823C11.1446 10.9823 10.9477 11.1792 10.9477 11.4109V12.4767C10.9477 12.7084 11.133 12.9054 11.3763 12.9054ZM3.08161 12.7316H3.13954C3.38282 12.7316 3.57976 12.5463 3.57976 12.303V11.5731C3.57976 11.3298 3.38282 11.1329 3.13954 11.1445H3.08161C2.84992 11.1445 2.65298 11.3414 2.65298 11.5731V12.303C2.65298 12.5347 2.83833 12.7316 3.08161 12.7316ZM1.91155 12.7084C2.15483 12.7084 2.35177 12.5231 2.35177 12.2798V11.6079C2.35177 11.3646 2.15483 11.1677 1.91155 11.1792C1.67985 11.1792 1.48291 11.3762 1.48291 11.6079V12.2798C1.48291 12.5115 1.67985 12.7084 1.91155 12.7084ZM6.20951 18.188L8.76975 18.5703C9.0362 18.6051 9.2679 18.4082 9.2679 18.1417V17.1802C9.2679 16.9601 9.10571 16.7747 8.8856 16.7515L6.32536 16.4735C6.07049 16.4503 5.83879 16.6473 5.83879 16.9021V17.7478C5.85038 17.9679 6.00098 18.1533 6.20951 18.188ZM4.26326 17.8868L4.37911 17.91C4.64556 17.9448 4.87726 17.7478 4.87726 17.4814V16.7052C4.87726 16.4851 4.71507 16.2997 4.49496 16.2766L4.37911 16.265C4.12424 16.2418 3.89255 16.4387 3.89255 16.6936V17.4582C3.89255 17.6783 4.05474 17.8521 4.26326 17.8868ZM11.3184 18.9526L11.8281 19.0337C12.0946 19.0685 12.3263 18.8715 12.3263 18.6051V17.5161C12.3263 17.296 12.1641 17.1107 11.944 17.0875L11.4343 17.0296C11.1794 17.0064 10.9477 17.2033 10.9477 17.4582V18.524C10.9477 18.7441 11.1099 18.9179 11.3184 18.9526ZM3.02369 17.7015L3.08161 17.7131C3.34806 17.7478 3.57976 17.5509 3.57976 17.2844V16.5662C3.57976 16.3461 3.41757 16.1607 3.19746 16.1375L3.13954 16.126C2.88467 16.1028 2.65298 16.2997 2.65298 16.5546V17.2728C2.65298 17.493 2.81516 17.6667 3.02369 17.7015ZM1.85363 17.5277C2.12008 17.5625 2.35177 17.3655 2.35177 17.0991V16.4272C2.35177 16.207 2.18958 16.0217 1.96947 15.9985C1.71461 15.9753 1.48291 16.1723 1.48291 16.4272V17.0991C1.48291 17.3076 1.6451 17.493 1.85363 17.5277Z" fill="url(#paint4_linear_27_6)"/>
<path d="M1.56389 4.51786C1.11208 4.61054 0.776123 5.00442 0.776123 5.46781V9.34872V9.8237V14.0406V14.5155V18.3964C0.776123 18.8598 1.1005 19.2653 1.56389 19.3464L12.4188 21.5359C13.0213 21.6634 13.5889 21.2 13.5889 20.586V15.4307V14.782V9.08227V8.43352V3.27828C13.5889 2.66429 13.0213 2.2009 12.4188 2.32833L1.56389 4.51786ZM13.1023 16.2996V19.8561C13.1023 20.4701 12.5463 20.9219 11.9439 20.8177L1.83034 18.9178C1.36695 18.8367 1.03099 18.4312 1.03099 17.9562V15.5813C1.03099 15.0137 1.50596 14.5735 2.07362 14.6082L2.83822 14.6661L12.1871 15.3381C12.7085 15.3728 13.1023 15.7899 13.1023 16.2996ZM12.0713 14.7009L1.95777 14.1101C1.44804 14.0753 1.04257 13.6583 1.04257 13.1369V10.7389C1.04257 10.2176 1.44804 9.80053 1.95777 9.76577L9.84702 9.30238L12.0713 9.17495C12.6274 9.14019 13.1023 9.592 13.1023 10.1481V13.7162C13.1023 14.2838 12.6274 14.7241 12.0713 14.7009ZM1.04257 8.2945V5.91962C1.04257 5.45623 1.37853 5.05076 1.84192 4.95808L11.9555 3.05817C12.5579 2.94233 13.1139 3.40572 13.1139 4.01971V7.57624C13.1139 8.08597 12.72 8.51461 12.2103 8.54937L2.32849 9.25604L2.09679 9.26762C1.51755 9.30238 1.04257 8.86216 1.04257 8.2945Z" fill="white"/>
<path d="M0.903564 20.2966L8.87391 23.7836C12.4304 25.336 16.4272 25.5097 20.1112 24.2702L27.2358 21.7447C27.5834 21.6172 27.9772 21.6752 28.2784 21.8837L29.3442 22.6251C29.6454 22.8336 30.0625 22.6367 30.0857 22.2776L30.5838 16.2651C30.607 15.9523 30.3289 15.6974 30.0277 15.7553L23.0653 17.076C22.6482 17.1571 22.5324 17.69 22.8799 17.9333L23.1927 18.1534C23.5518 18.3967 23.5055 18.9411 23.1 19.1265L16.3924 22.1733C14.7242 22.8336 12.8822 22.9842 11.1329 22.5904L0.903564 20.2966Z" fill="url(#paint5_linear_27_6)"/>
<path d="M4.92358 21.2581L9.20996 23.1349C11.1215 23.969 13.2762 24.0617 15.2572 23.4013L19.0918 22.0459C19.2771 21.9764 19.4857 22.0112 19.6594 22.127L20.2271 22.5325C20.3893 22.6483 20.6094 22.5441 20.6326 22.3471L20.899 19.115C20.9106 18.9412 20.76 18.8138 20.5978 18.8485L16.8443 19.5552C16.6242 19.6015 16.5547 19.8911 16.7517 20.0186L16.9254 20.1344C17.1224 20.2619 17.0876 20.5631 16.8791 20.6557L13.2646 22.2892C12.361 22.6483 11.3763 22.7294 10.4264 22.5093L4.92358 21.2581Z" fill="url(#paint6_linear_27_6)"/>
<defs>
<linearGradient id="paint0_linear_27_6" x1="14.3869" y1="-3.72755" x2="14.3869" y2="28.9055" gradientUnits="userSpaceOnUse">
<stop stop-color="#CBB8FF"/>
<stop offset="0.3095" stop-color="#6B43DD"/>
<stop offset="0.66" stop-color="#432793"/>
<stop offset="1" stop-color="#120025"/>
</linearGradient>
<linearGradient id="paint1_linear_27_6" x1="33.8022" y1="-2.87176" x2="22.2231" y2="30.4344" gradientUnits="userSpaceOnUse">
<stop stop-color="#E7FFDD"/>
<stop offset="0.2606" stop-color="#A7D800"/>
<stop offset="1" stop-color="#0B3F00"/>
</linearGradient>
<linearGradient id="paint2_linear_27_6" x1="32.5086" y1="-2.09932" x2="13.7709" y2="27.3456" gradientUnits="userSpaceOnUse">
<stop stop-color="#FF88D2"/>
<stop offset="0.7051" stop-color="#E60086"/>
<stop offset="1" stop-color="#5C001C"/>
</linearGradient>
<linearGradient id="paint3_linear_27_6" x1="7.01709" y1="0.491385" x2="7.46987" y2="29.809" gradientUnits="userSpaceOnUse">
<stop stop-color="#FF88D2"/>
<stop offset="0.5" stop-color="#E60086"/>
<stop offset="1" stop-color="#5C001C"/>
</linearGradient>
<linearGradient id="paint4_linear_27_6" x1="11.2869" y1="10.9497" x2="-9.37139" y2="19.1564" gradientUnits="userSpaceOnUse">
<stop stop-color="#E7FFDD"/>
<stop offset="0.5" stop-color="#A7D800"/>
<stop offset="1" stop-color="#0B3F00"/>
</linearGradient>
<linearGradient id="paint5_linear_27_6" x1="26.8004" y1="1.56763" x2="10.5479" y2="29.9715" gradientUnits="userSpaceOnUse">
<stop stop-color="#E7FFDD"/>
<stop offset="0.5" stop-color="#A7D800"/>
<stop offset="1" stop-color="#0B3F00"/>
</linearGradient>
<linearGradient id="paint6_linear_27_6" x1="18.8704" y1="11.1723" x2="10.1162" y2="26.4717" gradientUnits="userSpaceOnUse">
<stop stop-color="#E7FFDD"/>
<stop offset="0.5" stop-color="#A7D800"/>
<stop offset="1" stop-color="#0B3F00"/>
</linearGradient>
</defs>
</svg>
